<?xml version="1.0" encoding="UTF-8" standalone="no"?>
<svg
   width="1024"
   height="1024"
   viewBox="0 0 1024 1024"
   version="1.1"
   id="svg10"
   sodipodi:docname="force.svg"
   inkscape:export-filename="force2.png"
   inkscape:export-xdpi="300"
   inkscape:export-ydpi="300"
   inkscape:version="1.4.3 (0d15f75, 2025-12-25)"
   xmlns:inkscape="http://www.inkscape.org/namespaces/inkscape"
   xmlns:sodipodi="http://sodipodi.sourceforge.net/DTD/sodipodi-0.dtd"
   xmlns="http://www.w3.org/2000/svg"
   xmlns:svg="http://www.w3.org/2000/svg">
  <defs
     id="defs10" />
  <sodipodi:namedview
     id="namedview10"
     pagecolor="#ffffff"
     bordercolor="#000000"
     borderopacity="0.25"
     inkscape:showpageshadow="2"
     inkscape:pageopacity="0.0"
     inkscape:pagecheckerboard="0"
     inkscape:deskcolor="#d1d1d1"
     showgrid="false"
     inkscape:zoom="1.4169922"
     inkscape:cx="512"
     inkscape:cy="512"
     inkscape:window-width="3200"
     inkscape:window-height="1711"
     inkscape:window-x="366"
     inkscape:window-y="-9"
     inkscape:window-maximized="1"
     inkscape:current-layer="svg10" />
  <g
     id="g10"
     transform="translate(-33.404864,0.90961439)">
    <path
       d="m 405.315,399.815 c -0.76,-38.43 -0.266,-79.758 -0.077,-118.393 l -0.056,-29.942 c -0.009,-4.939 -0.25,-12.882 0.457,-17.512 0.801,-5.131 3.146,-9.896 6.724,-13.659 5.082,-5.446 12.737,-8.291 20.033,-8.281 18.464,0.024 36.995,0.253 55.46,0.217 l 26.508,-0.068 c 11.974,-0.029 23.164,-1.475 32.481,7.616 8.961,8.743 7.628,18.532 7.587,29.82 v 22.424 l 0.076,87.559 c 9.801,2.676 23.175,7.308 32.938,10.631 13.863,4.716 31.598,9.275 43.708,16.951 5.247,3.326 12.455,10.703 15.606,16.036 5.976,10.118 9.671,22.979 13.554,34.128 6.38,18.318 12.088,37.039 18.569,55.309 1.87,5.27 5.266,16.111 7.523,20.445 4.026,6.062 11.331,10.281 17.212,13.873 5.623,3.435 9.698,6.871 4.869,12.571 l 0.027,142.428 0.016,46.357 c 0.006,7.512 0.267,16.292 -0.004,23.657 5.108,5.697 0.642,11.686 -5.706,9.636 -8.644,-2.792 -17.388,-6.59 -25.87,-9.941 l -54.043,-21.259 c -23.2,11.516 -43.095,14 -68.416,10.9 -0.47,13.336 -0.169,26.602 -0.054,39.939 0.031,3.609 -0.024,7.189 -0.827,10.723 -1.147,4.859 -3.634,9.299 -7.178,12.815 -2.663,2.595 -8.86,6.063 -12.37,6.337 -10.274,0.804 -22.528,0.44 -32.837,0.434 l -66.102,0.242 c -9.853,0.02 -15.233,-1.041 -22.687,-8.209 -7.904,-7.601 -6.946,-16.884 -7.016,-26.926 -0.051,-7.318 0.008,-14.645 -0.022,-21.949 l -0.265,-78.439 c -11.811,-0.979 -23.253,-3.217 -34.9,-4.719 -21.872,-2.821 -35.605,-21.222 -31.698,-42.907 1.706,-9.395 7.066,-17.73 14.906,-23.18 -29.746,-13.836 -32.574,-52.421 -4.743,-69.495 -26.936,-17.02 -26.601,-51.88 0.507,-68.395 -14.497,-9.521 -22.079,-22.525 -19.128,-40.318 1.746,-10.302 7.568,-19.467 16.151,-25.427 13.226,-9.322 23.721,-7.477 38.372,-5.302 6.922,0.98 13.828,2.071 20.715,3.273 z"
       id="path1" />
    <path
       fill="#ddad86"
       d="m 544.762,441.63 c 3.646,-4.389 12.428,-16.141 3.33,-19.599 -6.671,-2.209 -8.314,7.736 -11.312,11.128 -17.621,19.084 -41.553,28.209 -67.71,29.626 -14.051,0.962 -38.843,-5.098 -34.031,-24.096 0.451,-1.781 15.446,-12.776 17.68,-14.523 13.755,-10.769 27.428,-21.643 41.017,-32.621 8.271,-6.772 16.449,-13.693 24.778,-20.406 4.463,-3.597 14.942,-4.872 20.535,-3.86 13.67,2.474 26.87,8.254 40.181,12.225 4.523,1.51 8.975,2.899 13.506,4.422 15.099,5.038 34.315,9.499 43.368,24.096 7.542,12.161 12.36,29.788 16.944,43.493 l 19.198,57.246 c 5.497,16.138 14.506,22.164 28.939,30.541 2.73,1.585 4.549,1.31 7.302,0.238 l 0.027,142.428 0.016,46.357 c 0.006,7.512 0.267,16.292 -0.004,23.657 -4.705,-2.461 -27.448,-11.201 -32.897,-13.174 -16.346,-5.92 -36.6,-15.251 -52.726,-20.227 -4.707,1.684 -9.916,4.277 -14.903,6.064 -19.054,6.83 -33.653,8.514 -53.42,5.257 0.009,-49.725 -0.706,-101.187 0.04,-150.784 5.852,13.479 13.129,24.921 23.232,35.627 2.665,2.824 8.168,8.561 12.263,4.924 7.035,-6.249 -4.295,-12.874 -8.228,-17.602 -19.912,-23.939 -29.104,-55.94 -26.363,-86.832 0.704,-7.84 2.839,-16.077 4.649,-23.746 2.4,-10.725 8.389,-21.139 9.287,-31.598 -0.785,-1.503 -21.135,-15.393 -24.698,-18.261 z"
       id="path2" />
    <path
       fill="#b1b0b0"
       d="m 536.222,449.64 c 2.216,1.58 4.463,3.117 6.739,4.609 -0.729,25.219 -0.031,53.903 -0.045,79.402 l 0.062,168.147 0.015,54.737 c 0.006,10.069 0.132,20.191 -0.137,30.251 -0.224,8.397 -6.917,13.013 -14.793,13.455 -6.3,0.354 -12.591,0.237 -18.887,0.226 l -34.583,-0.074 -27.789,0.13 c -10.471,0.058 -20.514,2.005 -27.808,-6.912 -2.453,-4.929 -2.207,-9.166 -2.224,-14.556 -0.03,-9.236 -0.02,-18.477 -0.022,-27.713 l -0.094,-72.812 c 13.649,2.403 24.089,4.1 36.338,-4.312 8.078,-5.576 13.573,-14.168 15.248,-23.84 1.978,-11.432 -0.921,-20.457 -7.377,-29.718 3.29,-0.839 6.222,-1.824 9.26,-3.367 8.895,-4.445 15.636,-12.271 18.716,-21.725 6.701,0.039 29.448,0.986 34.286,-1.293 3.068,-3.335 2.195,-19.844 2.182,-24.962 l -0.085,-32.262 c -0.062,-26.345 0.432,-53.438 -0.162,-79.698 4.24,-2.688 7.17,-4.653 11.16,-7.713 z"
       id="path3" />
    <path
       fill="#b1b0b0"
       d="m 430.999,223.679 c 25.971,-0.777 52.743,0.335 78.549,-0.069 11.719,-0.184 32.402,-2.534 33.217,13.067 0.622,11.902 0.145,25.205 0.148,37.175 l 0.013,82.346 c -11.387,-1.76 -23.041,-1.174 -32.336,6.465 -3.881,3.19 -8.526,7.647 -12.654,10.306 l -37.673,-0.287 c -6.242,-0.032 -20.199,-1.293 -24.906,2.565 -1.592,3.404 -0.956,23.421 -1.214,29.058 -5.759,-0.983 -11.641,-1.858 -17.419,-2.768 l 0.11,-110.897 -0.039,-32.735 c -0.058,-13.957 -3.822,-31.378 14.204,-34.226 z"
       id="path4" />
    <path
       fill="#ddad86"
       d="m 366.332,474.14 c 4.443,-0.416 26.066,3.364 31.775,4.23 l 39.177,6.065 c 7.342,1.173 25.001,3.135 30.474,7.155 21.66,15.908 15.182,45.633 -11.431,50.955 -6.382,0.296 -34.029,-4.269 -41.461,-5.393 l -33.134,-5.111 c -8.106,-1.265 -22.782,-2.64 -29.39,-7.111 -6.255,-4.266 -10.455,-10.941 -11.591,-18.427 -2.758,-17.302 9.224,-29.75 25.581,-32.363 z"
       id="path5" />
    <path
       fill="#ddad86"
       d="m 365.11,542.11 c 5.336,-0.497 14.648,1.331 20.269,2.196 l 27.663,4.223 c 10.234,1.539 47.309,5.809 53.885,10.103 6.565,4.317 11.084,11.128 12.509,18.855 2.941,15.655 -7.999,29.703 -23.404,32.37 -7.151,0.652 -33.676,-4.149 -42.247,-5.396 l -32.459,-4.821 c -5.983,-0.905 -12.422,-1.686 -18.232,-2.962 -15.291,-3.36 -25.203,-17.732 -21.335,-33.408 3.028,-12.273 11.369,-18.847 23.351,-21.16 z"
       id="path6" />
    <path
       fill="#ddad86"
       d="m 369.431,610.576 c 11.144,-0.876 27.958,3.392 39.577,4.725 9.832,2.314 26.402,1.648 35.035,6.568 20.57,11.721 16.275,39.984 -6.097,46.603 -4.795,0.802 -15.409,-0.052 -20.096,-1.302 -13.565,-3.62 -45.723,-3.972 -56.52,-10.13 -5.57,-3.242 -9.602,-8.587 -11.19,-14.833 -3.885,-14.742 4.878,-27.637 19.291,-31.631 z"
       id="path7" />
    <path
       fill="#ddad86"
       d="m 366.836,406.147 c 2.986,-0.229 6.307,0.214 9.271,0.7 22.039,3.614 44.211,6.61 66.244,10.228 -5.003,4.369 -12.912,8.613 -16.537,13.936 -3.11,4.569 -3.965,11.324 -2.734,16.74 2.22,9.768 8.765,17.009 17.753,21.185 2.581,1.198 6.361,2.053 8.452,3.407 -1.032,0.881 -2.406,0.763 -3.847,0.876 -3.047,-0.043 -6.303,-0.365 -9.325,-0.837 -24.342,-3.805 -48.815,-7.142 -73.075,-11.397 -3.036,-0.533 -7.545,-2.694 -10.034,-4.401 -6.214,-4.234 -10.354,-10.892 -11.402,-18.338 -2.524,-16.859 9.008,-29.678 25.234,-32.099 z"
       id="path8" />
    <path
       fill="#76d9fc"
       d="m 512.924,464.015 c 0.027,0.023 0.059,0.042 0.082,0.069 1.423,1.697 0.617,111.734 0.621,120.134 -7.381,-0.103 -14.764,-0.118 -22.145,-0.045 -0.05,-14.196 -3.696,-22.023 -13.793,-31.736 -1.403,-1.117 -3.515,-2.519 -5.025,-3.594 8.168,-5.157 13.784,-10.928 17.215,-20.135 3.681,-9.754 3.239,-20.586 -1.225,-30.008 -5.078,-10.854 -12.993,-16.862 -24.021,-20.814 l 4.49,-3.722 c 16.143,-0.319 29.113,-4.011 43.801,-10.149 z"
       id="path9" />
    <path
       fill="#76d9fc"
       d="m 446.018,384.288 c 12.516,-0.101 25.319,0.088 37.858,0.14 -3.153,2.898 -9.565,7.679 -13.126,10.502 -5.53,4.312 -11.018,8.679 -16.461,13.1 -3.298,-0.953 -4.684,-1.307 -8.086,-1.765 z"
       id="path10" />
  </g>
  <rect
     style="fill:none;stroke:none;stroke-opacity:1"
     id="rect10"
     width="600"
     height="600"
     x="186.31013"
     y="212.82774" />
</svg>
