<?xml version="1.0" encoding="UTF-8" standalone="no"?>
<svg
   version="1.0"
   width="600.000000pt"
   height="600.000000pt"
   viewBox="0 0 600.000000 600.000000"
   preserveAspectRatio="xMidYMid meet"
   id="svg1"
   sodipodi:docname="led.svg"
   xml:space="preserve"
   inkscape:version="1.4.3 (0d15f75, 2025-12-25)"
   xmlns:inkscape="http://www.inkscape.org/namespaces/inkscape"
   xmlns:sodipodi="http://sodipodi.sourceforge.net/DTD/sodipodi-0.dtd"
   xmlns="http://www.w3.org/2000/svg"
   xmlns:svg="http://www.w3.org/2000/svg"><defs
     id="defs1"><linearGradient
       id="swatch34"
       inkscape:swatch="solid"><stop
         style="stop-color:#e9c6af;stop-opacity:1;"
         offset="0"
         id="stop34" /></linearGradient></defs><sodipodi:namedview
     id="namedview1"
     pagecolor="#ffffff"
     bordercolor="#000000"
     borderopacity="0.25"
     inkscape:showpageshadow="2"
     inkscape:pageopacity="0.0"
     inkscape:pagecheckerboard="0"
     inkscape:deskcolor="#d1d1d1"
     inkscape:document-units="pt"
     inkscape:zoom="2.11"
     inkscape:cx="314.45498"
     inkscape:cy="471.80095"
     inkscape:window-width="3200"
     inkscape:window-height="1711"
     inkscape:window-x="366"
     inkscape:window-y="-9"
     inkscape:window-maximized="1"
     inkscape:current-layer="svg1" /><rect
     style="fill:#e9c6af;fill-opacity:1;stroke:none;stroke-width:6.41217;stroke-dasharray:none;stroke-opacity:1"
     id="rect44"
     width="134.11174"
     height="201.73474"
     x="226.14995"
     y="167.01801" /><path
     id="rect27"
     style="fill:#e6e6e6;stroke:#00ff00;stroke-width:10;stroke-dasharray:none;stroke-opacity:1"
     d="m 305.51536,327.88538 a 15,15 0 0 0 -15,15 15,15 0 0 0 15,15 15,15 0 0 0 15,-15 15,15 0 0 0 -15,-15 z" /><path
     id="path34"
     style="fill:#e6e6e6;stroke:#ff003a;stroke-width:10;stroke-dasharray:none;stroke-opacity:1"
     d="m 255.51585,327.88538 a 15,15 0 0 0 -10.60693,4.39306 15,15 0 0 0 0,21.21387 15,15 0 0 0 21.2124,0 15,15 0 0 0 0,-21.21387 15,15 0 0 0 -10.60547,-4.39306 z" /><path
     id="path33"
     style="fill:#e6e6e6;stroke:#00ff00;stroke-width:10;stroke-dasharray:none;stroke-opacity:1"
     d="m 334.80491,257.17444 a 15,15 0 0 0 -10.60693,4.39453 15,15 0 0 0 0,21.2124 15,15 0 0 0 21.21387,0 15,15 0 0 0 0,-21.2124 15,15 0 0 0 -10.60694,-4.39453 z" /><path
     id="path32"
     style="fill:#e6e6e6;stroke:#ff003a;stroke-width:10;stroke-dasharray:none;stroke-opacity:1"
     d="m 275.61204,252.88538 a 15,15 0 0 0 -3.8833,0.51123 15,15 0 0 0 -10.60693,18.3706 15,15 0 0 0 18.37207,10.60694 15,15 0 0 0 10.60693,-18.37061 15,15 0 0 0 -14.48877,-11.11816 z" /><path
     id="path29"
     style="fill:#e6e6e6;stroke:#ff003a;stroke-width:10;stroke-dasharray:none;stroke-opacity:1"
     d="m 330.51585,197.98157 a 15,15 0 0 0 -14.49023,11.11816 15,15 0 0 0 10.60693,18.37061 15,15 0 0 0 18.37207,-10.60694 15,15 0 0 0 -10.60693,-18.3706 15,15 0 0 0 -3.88184,-0.51123 z" /><path
     style="fill:#4d4d4d;fill-opacity:1;stroke:#323232;stroke-width:8.05332;stroke-dasharray:none;stroke-opacity:1"
     d="m 228.6763,164.38865 v 204.3523"
     id="path100" /><path
     style="fill:#4d4d4d;fill-opacity:1;stroke:#323232;stroke-width:6.41295;stroke-dasharray:none;stroke-opacity:1"
     d="M 224.6504,166.865 H 360.25396"
     id="path101" /><rect
     style="fill:none;fill-opacity:1;stroke:none;stroke-width:1;stroke-dasharray:none;stroke-opacity:1"
     id="rect101"
     width="210"
     height="210"
     x="187.45566"
     y="161.20564"
     ry="0"
     inkscape:export-filename="C:\Users\Maik Bieleke\Desktop\led.png"
     inkscape:export-xdpi="525.58801"
     inkscape:export-ydpi="525.58801" /></svg>
