<?xml version="1.0" encoding="UTF-8" standalone="no"?>
<svg
   version="1.0"
   width="600.000000pt"
   height="600.000000pt"
   viewBox="0 0 600.000000 600.000000"
   preserveAspectRatio="xMidYMid meet"
   id="svg1"
   sodipodi:docname="reed.svg"
   xml:space="preserve"
   inkscape:version="1.4.3 (0d15f75, 2025-12-25)"
   xmlns:inkscape="http://www.inkscape.org/namespaces/inkscape"
   xmlns:sodipodi="http://sodipodi.sourceforge.net/DTD/sodipodi-0.dtd"
   xmlns="http://www.w3.org/2000/svg"
   xmlns:svg="http://www.w3.org/2000/svg"><defs
     id="defs1" /><sodipodi:namedview
     id="namedview1"
     pagecolor="#ffffff"
     bordercolor="#000000"
     borderopacity="0.25"
     inkscape:showpageshadow="2"
     inkscape:pageopacity="0.0"
     inkscape:pagecheckerboard="0"
     inkscape:deskcolor="#d1d1d1"
     inkscape:document-units="pt"
     inkscape:zoom="1.96375"
     inkscape:cx="501.59134"
     inkscape:cy="354.67855"
     inkscape:window-width="3200"
     inkscape:window-height="1711"
     inkscape:window-x="366"
     inkscape:window-y="-9"
     inkscape:window-maximized="1"
     inkscape:current-layer="svg1" /><g
     id="g6"
     transform="translate(-1.2188085,7.0349487)"><rect
       style="fill:#e9c6af;stroke:none;stroke-width:2.86581"
       id="rect5"
       width="352.46799"
       height="135.76776"
       x="123.74284"
       y="300.00562"
       ry="5.4011974" /><g
       id="g5"><path
         d="m 281.1,114 c -18.1,2.3 -37.3,9.4 -45.4,17 -8.2,7.5 -7.7,1.3 -7.7,87.9 V 296 h -51.4 c -55.4,0 -54.2,-0.1 -53.4,5.2 l 0.3,2.3 52,0.5 52,0.5 0.3,5.7 0.3,5.8 -4.3,1.7 c -17.2,6.8 -31.7,16.8 -38,26.5 -10.2,15.2 -8.2,30.5 5.6,44.4 35.2,35.1 135.6,43.1 194.1,15.4 35.8,-16.9 45.1,-42.5 24,-65.9 -4.8,-5.3 -17.6,-13.5 -28.2,-18.1 l -8.8,-3.8 v -5.8 -5.9 l 52,-0.5 52,-0.5 0.3,-2.4 c 0.8,-5.1 0.7,-5.1 -54,-5.1 H 372 v -77 c 0,-74.1 -0.1,-77.2 -1.9,-80.9 -5.2,-10.1 -21.6,-18.7 -43.5,-22.7 -9.9,-1.9 -35.5,-2.6 -45.5,-1.4 z m 48.9,10.4 c 12.5,2.9 17.7,4.8 24.8,9.3 6.2,3.9 9.2,8.4 9.2,13.7 0,3.4 -0.7,4.6 -4.8,8.6 -10.2,9.8 -27.4,14.9 -53.8,15.7 -18.4,0.6 -28.6,-0.3 -41.4,-3.9 -15,-4.1 -27,-12 -28.5,-18.8 -1.4,-6.2 4.6,-13.5 15.5,-18.6 6.5,-3.1 21.6,-7.1 31.5,-8.4 12.2,-1.6 35.6,-0.4 47.5,2.4 z M 238.5,165 c 1.1,1.8 13.8,7.7 21,9.9 12.4,3.7 24.1,5.2 40.6,5.1 25.3,0 45.9,-4.6 58.7,-13.1 2.4,-1.6 4.5,-2.9 4.8,-2.9 0.2,0 0.4,54 0.4,120 v 119.9 l -3.7,1.1 c -6.6,1.8 -22.5,4.9 -32.3,6.2 -13.9,1.8 -45.9,1.5 -60.5,-0.6 -10.8,-1.5 -15.5,-2.5 -27.7,-5.7 l -3.8,-1 V 284 c 0,-74.3 0.4,-120 0.9,-120 0.6,0 1.3,0.5 1.6,1 z m -11.3,185.5 c -0.1,0.5 -5.2,3.4 -11.3,6.3 -9.1,4.3 -12.2,6.4 -17.9,12.1 l -6.8,6.8 -1.8,-4 c -6.7,-14.8 5.6,-32.2 31.1,-43.8 l 6,-2.7 0.5,12.1 c 0.3,6.7 0.4,12.6 0.2,13.2 z m 164.4,-16 c 17,10.6 24.4,25.2 18.9,37.4 -1.7,3.8 -3.5,5.4 -3.5,3.1 0,-4 -17.1,-16.9 -28,-21.2 l -6,-2.3 V 338.3 325 l 5.8,2.6 c 3.1,1.4 8.9,4.5 12.8,6.9 z"
         id="path1"
         style="fill:#000000;stroke:none;stroke-width:0.1" /><path
         style="fill:#e9c6af;stroke:#000000;stroke-width:1.36093"
         d="m 386.18563,549.44685 c -26.12877,-1.09273 -37.62084,-2.65591 -59.68324,-8.11825 l -11.79261,-2.91969 0.0149,-85.3837 c 0.0161,-92.33313 0.51859,-215.33584 0.92652,-226.80505 0.17497,-4.91932 0.37902,-7.11158 0.66192,-7.11158 0.22493,0 1.07227,0.61852 1.88297,1.37448 2.2469,2.09521 11.02247,6.5248 20.14705,10.16952 11.50777,4.59665 26.79802,7.82819 42.4413,8.96981 6.49049,0.47367 29.42476,0.47193 36.18802,-0.003 18.86242,-1.32383 34.43864,-4.51326 47.63144,-9.75317 5.0536,-2.00718 8.73145,-3.92322 14.59315,-7.60253 2.83356,-1.77859 5.2641,-3.12165 5.4012,-2.98458 0.13709,0.13708 0.29823,72.0037 0.35809,159.70361 l 0.10883,159.45438 -2.08927,0.61108 c -6.75221,1.9749 -21.1161,5.01515 -33.77629,7.14905 -9.55081,1.60981 -14.49041,2.256 -21.06467,2.75564 -5.00109,0.38009 -35.95522,0.74439 -41.9493,0.49372 z"
         id="path2"
         transform="scale(0.75)" /><path
         style="fill:#e9c6af;stroke:#000000;stroke-width:1.36093"
         d="m 380.96447,228.59412 c -0.69316,-0.0668 -3.12369,-0.29852 -5.4012,-0.51504 -10.84669,-1.03121 -24.11693,-4.19189 -34.20758,-8.14749 -9.33238,-3.65836 -16.78998,-8.17697 -21.80567,-13.21221 -4.34545,-4.36239 -5.38036,-6.41205 -5.38036,-10.65591 0,-2.84336 0.10152,-3.26521 1.42982,-5.94132 2.6783,-5.39591 9.63311,-11.36989 18.01518,-15.47452 8.42491,-4.1256 25.48723,-8.94724 40.08138,-11.32657 6.94076,-1.13158 16.02195,-1.58728 26.5327,-1.33142 16.94728,0.41253 29.53146,1.76451 41.00498,4.40538 11.85467,2.72859 18.83771,5.05372 25.31566,8.42931 9.24911,4.8196 14.10824,8.94848 16.70974,14.19852 1.40273,2.83083 1.52999,3.33031 1.6888,6.62846 0.15647,3.2493 0.0917,3.73909 -0.72743,5.50032 -1.07377,2.30875 -3.94634,5.5331 -7.75339,8.70289 -13.33387,11.10193 -32.71884,16.83578 -62.91541,18.60966 -5.56042,0.32664 -29.55123,0.4223 -32.58722,0.12994 z"
         id="path3"
         transform="scale(0.75)" /><path
         style="fill:#a05a2c;stroke:#000000;stroke-width:1.36093"
         d="m 253.66748,497.5929 c -2.6921,-5.89332 -3.65672,-10.29112 -3.27277,-14.92097 1.26206,-15.21857 15.37383,-30.9729 38.02924,-42.45568 6.09693,-3.09021 13.00993,-6.21298 13.24142,-5.98149 0.30218,0.30218 1.18451,23.54688 1.08059,28.46783 l -0.0989,4.68104 -1.98044,1.33615 c -1.08924,0.73488 -6.67948,3.68624 -12.42275,6.55857 -14.69907,7.3513 -16.3628,8.52562 -27.26118,19.24184 l -6.01646,5.91591 z"
         id="path4"
         transform="scale(0.75)" /><path
         style="fill:#a05a2c;stroke:#000000;stroke-width:1.36093"
         d="m 542.99249,500.42095 c -0.0516,-4.11074 -11.2996,-14.13131 -25.37772,-22.60837 -5.27625,-3.17706 -9.99478,-5.46513 -15.93354,-7.72637 l -4.05089,-1.54241 v -17.40102 -17.40102 l 1.60157,0.68651 c 6.86917,2.94447 14.88423,7.06107 21.60893,11.09851 14.21495,8.53452 24.32463,20.05936 27.56469,31.42319 1.09748,3.84918 1.32518,9.15163 0.55601,12.94764 -0.63543,3.13602 -2.41029,7.43669 -4.0457,9.80318 -0.98664,1.4277 -1.91013,1.77349 -1.92335,0.72016 z"
         id="path5"
         transform="scale(0.75)" /></g></g><rect
     style="fill:none;stroke:none;stroke-width:2.11593;stroke-opacity:1"
     id="rect6"
     width="355"
     height="355"
     x="121.25753"
     y="104.12531"
     ry="4.1817317"
     inkscape:export-filename="..\Desktop\rect6.png"
     inkscape:export-xdpi="96"
     inkscape:export-ydpi="96" /></svg>
